Coordinates
version=1
nRows=13
nColumns=40
inDegrees=yes

Units are S.I. units (second, meters, Newtons, ...)
Angles are in degrees.

endheader
time	pelvis_tilt	pelvis_list	pelvis_rotation	pelvis_tx	pelvis_ty	pelvis_tz	hip_flexion_r	hip_adduction_r	hip_rotation_r	knee_angle_r	knee_angle_r_beta	ankle_angle_r	subtalar_angle_r	mtp_angle_r	hip_flexion_l	hip_adduction_l	hip_rotation_l	knee_angle_l	knee_angle_l_beta	ankle_angle_l	subtalar_angle_l	mtp_angle_l	lumbar_extension	lumbar_bending	lumbar_rotation	arm_flex_r	arm_add_r	arm_rot_r	elbow_flex_r	pro_sup_r	wrist_flex_r	wrist_dev_r	arm_flex_l	arm_add_l	arm_rot_l	elbow_flex_l	pro_sup_l	wrist_flex_l	wrist_dev_l
      1.13000000	     -3.19487484	      2.22809010	      0.25331819	      0.05491477	      0.94953917	      1.00408230	     28.41647035	     -9.68496733	    -23.96313991	    -13.86886078	     -0.24205728	     -0.12444888	      5.71528016	      0.90787230	     -3.44974564	     -5.77067491	     13.89888363	    -10.00946268	     -0.17469808	      6.53421129	     -0.34361551	    -13.51524229	     -2.58767564	     -1.46290842	     -7.56069542	     -4.08497721	     -9.55556569	    -22.04793367	     15.80933297	     89.95437384	      0.00000000	      0.00000000	     15.59216790	     15.00293248	     -0.40090008	     36.36356734	     89.95437384	      0.00000000	      0.00000000
      1.14000000	     -3.37585685	      2.38848358	      0.48004092	      0.06227530	      0.94825662	      1.00457144	     28.83253444	     -9.74234966	    -23.94936000	    -13.01946072	     -0.22723246	     -0.10933503	      6.22740523	      0.83044116	     -3.74323118	     -5.87029683	     13.76635688	    -10.07402181	     -0.17582485	      6.71544802	     -0.51008237	    -13.51616374	     -2.42296521	     -1.63364866	     -7.60040366	     -4.10213161	     -9.53786139	    -22.06492089	     15.70922454	     89.95437384	      0.00000000	      0.00000000	     15.48712691	     14.91852694	     -0.33897155	     36.64163953	     89.95437384	      0.00000000	      0.00000000
      1.15000000	     -3.49448243	      2.48758345	      0.68177615	      0.06991207	      0.94702690	      1.00516685	     29.19099657	     -9.76355318	    -23.85518349	    -12.48676422	     -0.21793515	     -0.20189741	      6.60354190	      0.77511336	     -4.09014772	     -5.89097773	     13.68765765	    -10.19463136	     -0.17792988	      6.95792604	     -0.64298898	    -13.48052947	     -2.30936386	     -1.73693356	     -7.63874138	     -4.11957386	     -9.57267908	    -22.06503491	     15.64639644	     89.95437384	      0.00000000	      0.00000000	     15.29353720	     14.79804152	     -0.24954070	     36.82425653	     89.95437384	      0.00000000	      0.00000000
      1.16000000	     -3.28519335	      2.35161553	      0.98523432	      0.07798526	      0.94636889	      1.00593798	     29.04474153	     -9.64848845	    -24.34621283	    -12.11240961	     -0.21140143	     -0.37793376	      7.42158905	      0.32201248	     -4.80853844	     -5.56915483	     13.74057477	    -10.33322450	     -0.18034879	      7.10260871	     -1.08333558	    -13.56694264	     -2.56186005	     -1.59153355	     -7.80667000	     -4.00515967	     -9.53919024	    -22.51255520	     15.52797422	     89.95437384	      0.00000000	      0.00000000	     15.03278096	     14.62527451	      0.13978419	     37.05769720	     89.95437384	      0.00000000	      0.00000000
      1.17000000	     -3.40033941	      2.44174535	      1.21853686	      0.08587091	      0.94507582	      1.00672838	     29.44620357	     -9.73429361	    -24.16816607	    -12.28726665	     -0.21445326	     -0.37026866	      7.20696120	      0.27674756	     -5.12551694	     -5.51960007	     13.66526780	    -10.56289536	     -0.18435730	      7.26344045	     -1.16513801	    -13.45503874	     -2.42683365	     -1.69836011	     -7.81165486	     -4.11373095	     -9.55911825	    -22.44318174	     15.62482861	     89.95437384	      0.00000000	      0.00000000	     14.79241631	     14.48780088	      0.15076171	     37.14585344	     89.95437384	      0.00000000	      0.00000000
      1.18000000	     -3.49561351	      2.50121283	      1.45762677	      0.09383440	      0.94382530	      1.00769412	     29.80112967	     -9.79380853	    -23.79756871	    -12.68752982	     -0.22143917	     -0.45996799	      6.94307021	      0.26743618	     -5.34652260	     -5.40917732	     13.52619183	    -11.03178598	     -0.19254099	      7.19958170	     -1.14947261	    -13.22337900	     -2.32302210	     -1.78945077	     -7.80390640	     -4.29613079	     -9.53472573	    -22.34710912	     15.89505160	     89.95437384	      0.00000000	      0.00000000	     14.45561559	     14.35712483	      0.15544896	     37.24576280	     89.95437384	      0.00000000	      0.00000000
      1.19000000	     -3.44114569	      2.49689600	      1.68207908	      0.10230652	      0.94276769	      1.00856406	     29.98763621	     -9.86619187	    -23.75685666	    -13.39132107	     -0.23372264	     -0.50360868	      6.30553185	      0.20211582	     -6.04751128	     -5.28065298	     13.33040087	    -10.92041143	     -0.19059714	      7.85042166	     -1.47822045	    -13.28354741	     -2.32475309	     -1.77495335	     -7.92039958	     -4.12781643	     -9.60057565	    -22.35256074	     15.64171714	     89.95437384	      0.00000000	      0.00000000	     14.04876164	     14.17855162	      0.33637682	     37.13002940	     89.95437384	      0.00000000	      0.00000000
      1.20000000	     -3.38934418	      2.50423586	      1.98444850	      0.11083166	      0.94173446	      1.00946425	     30.09388153	     -9.95463851	    -23.56104938	    -14.16480516	     -0.24722249	     -0.55298550	      5.60125384	      0.15820243	     -6.60684293	     -5.10996207	     13.23395258	    -11.08848785	     -0.19353062	      8.04149540	     -1.62926083	    -13.18312472	     -2.33805884	     -1.77749710	     -8.07747370	     -4.12718072	     -9.63876385	    -22.36737575	     15.69726029	     89.95437384	      0.00000000	      0.00000000	     13.58722091	     14.00341395	      0.45733023	     37.03608289	     89.95437384	      0.00000000	      0.00000000
      1.21000000	     -3.27369358	      2.47392055	      2.23266355	      0.11961461	      0.94075844	      1.01052485	     30.08262817	     -9.98562711	    -23.40868032	    -15.04919577	     -0.26265802	     -0.49975938	      4.71179653	      0.10742212	     -7.25192422	     -4.88948960	     13.08350871	    -11.26448065	     -0.19660228	      8.23912069	     -1.80710178	    -13.09952985	     -2.38883392	     -1.74794316	     -8.14193049	     -4.12042759	     -9.66712333	    -22.35370923	     15.69315610	     89.95437384	      0.00000000	      0.00000000	     13.15818615	     13.75852271	      0.61111534	     36.78133695	     89.95437384	      0.00000000	      0.00000000
      1.22000000	     -3.13738342	      2.42349786	      2.48029145	      0.12856565	      0.93987239	      1.01177381	     29.95670695	     -9.95568289	    -23.17128641	    -15.93597923	     -0.27813531	     -0.45881098	      3.78232556	      0.07266411	     -7.89426162	     -4.61671164	     12.93327382	    -11.47298332	     -0.20024133	      8.32200182	     -1.97330582	    -12.99687233	     -2.45890121	     -1.69313467	     -8.18749951	     -4.12584111	     -9.69230094	    -22.36354838	     15.75928234	     89.95437384	      0.00000000	      0.00000000	     12.63717362	     13.54309445	      0.80348795	     36.53195969	     89.95437384	      0.00000000	      0.00000000
      1.23000000	     -2.53127547	      1.97015699	      2.59035566	      0.13802204	      0.93983864	      1.01377278	     28.97245674	     -9.15201292	    -22.65965655	    -16.18604570	     -0.28249979	     -0.73131903	      1.23359443	      0.24044967	     -9.09677930	     -3.76810998	     13.35812438	    -11.60512947	     -0.20254772	      7.94063366	     -3.03358868	    -13.49492323	     -3.03550597	     -1.19427168	     -8.04565343	     -4.05488466	     -9.69331377	    -22.68309862	     15.79004358	     89.95437384	      0.00000000	      0.00000000	     12.17382184	     13.17098360	      1.16262023	     36.14664750	     89.95437384	      0.00000000	      0.00000000
      1.24000000	     -2.68849635	      2.05675043	      2.75430381	      0.14710491	      0.93848659	      1.01546549	     28.93949784	     -9.14478597	    -22.22016533	    -16.74293251	     -0.29221930	     -0.82643593	      1.12107869	      0.24023851	     -9.24227731	     -3.61738328	     13.14717710	    -12.21576583	     -0.21320533	      7.76040341	     -2.92179657	    -13.21772475	     -2.76093436	     -1.35293512	     -7.95966755	     -4.26497951	     -9.64092263	    -22.59366980	     16.14380196	     89.95437384	      0.00000000	      0.00000000	     11.42062606	     13.04327055	      1.13686776	     36.00832855	     89.95437384	      0.00000000	      0.00000000
      1.25000000	     -2.35074463	      1.82266444	      3.02317007	      0.15698392	      0.93787512	      1.01696375	     28.41342527	     -8.92523210	    -22.39299737	    -17.89629514	     -0.31234927	     -0.24929675	      0.05316603	      0.18824978	    -10.22793178	     -3.07785788	     13.24295975	    -12.26018270	     -0.21398056	      8.05424415	     -3.19536910	    -13.31693687	     -2.91586668	     -1.09180599	     -7.98617117	     -4.12405461	     -9.72369679	    -22.66855097	     15.88384336	     89.95437384	      0.00000000	      0.00000000	     10.99457462	     12.68255123	      1.33060799	     35.05386684	     89.95437384	      0.00000000	      0.00000000
